<?xml version="1.0" encoding="iso-8859-1"?>
<!-- Generator: Adobe Illustrator 20.0.0, SVG Export Plug-In . SVG Version: 6.00 Build 0)  -->
<svg version="1.1" id="&#x56FE;&#x5C42;_1" xmlns="http://www.w3.org/2000/svg" xmlns:xlink="http://www.w3.org/1999/xlink" width="200px"
	 height="200px" viewBox="0 0 200 200" style="enable-background:new 0 0 200 200;" xml:space="preserve">
<g>
	<g>
		<polygon style="fill:#319FD2;" points="53.604,79.349 53.604,114.119 39.018,114.119 39.018,119.032 53.604,119.032 
			58.159,119.032 58.518,119.032 58.518,79.349 		"/>
		<path style="fill:#319FD2;" d="M60.018,120.532h-22.5v-7.913h14.586v-34.77h7.914V120.532z M40.518,117.532h16.5V80.849h-1.914
			v34.77H40.518V117.532z"/>
	</g>
</g>
<polygon style="fill:#319FD2;stroke:#319FD2;stroke-width:3;stroke-miterlimit:10;" points="74.947,79.349 74.947,79.371 
	74.951,79.349 "/>
<g>
	<polygon style="fill:#FF902B;" points="88.877,96.547 76.916,96.547 76.095,101.46 89.697,101.46 	"/>
	<path style="fill:#FF902B;" d="M91.469,102.96H74.324l1.322-7.913h14.5L91.469,102.96z M77.867,99.96h10.059l-0.319-1.913h-9.42
		L77.867,99.96z"/>
</g>
<g>
	<polygon style="fill:#319FD2;" points="90.842,79.349 90.711,79.349 86.003,79.349 79.789,79.349 74.951,79.349 74.947,79.371 
		68.321,119.032 73.159,119.032 76.095,101.46 76.916,96.547 78.968,84.263 86.825,84.263 88.877,96.547 89.697,101.46 
		92.633,119.032 97.472,119.032 	"/>
	<path style="fill:#319FD2;" d="M99.244,120.532h-7.88l-5.809-34.77h-5.317l-5.809,34.77h-7.88l7.127-42.661l1.274-0.022h17.161
		L99.244,120.532z M93.903,117.532h1.797l-6.129-36.683H76.221l-6.128,36.683h1.797l5.809-34.77h10.397L93.903,117.532z"/>
</g>
<g>
	<g>
		<rect x="104.581" y="79.349" style="fill:#319FD2;" width="4.913" height="39.683"/>
		<path style="fill:#319FD2;" d="M110.994,120.532h-7.913V77.849h7.913V120.532z M106.081,117.532h1.913V80.849h-1.913V117.532z"/>
	</g>
	<g>
		<rect x="126.691" y="89.808" style="fill:#319FD2;" width="4.913" height="29.225"/>
		<path style="fill:#319FD2;" d="M133.104,120.532h-7.913V88.308h7.913V120.532z M128.19,117.532h1.913V91.308h-1.913V117.532z"/>
	</g>
	<g>
		<rect x="105.246" y="114.119" style="fill:#319FD2;" width="26.358" height="4.913"/>
		<path style="fill:#319FD2;" d="M133.104,120.532h-29.357v-7.913h29.357V120.532z M106.746,117.532h23.357v-1.913h-23.357V117.532z
			"/>
	</g>
	<g>
		<polygon style="fill:#319FD2;" points="122.814,84.263 105.246,84.263 105.246,79.349 124.49,79.349 		"/>
		<path style="fill:#319FD2;" d="M123.888,85.763h-20.142v-7.914h21.504L123.888,85.763z M106.746,82.763h14.995l0.652-1.914
			h-15.647V82.763z"/>
	</g>
	<g>
		<polyline style="fill:#319FD2;" points="131.605,89.808 124.49,79.349 123.159,81.849 122.814,84.263 126.691,89.808 		"/>
		<polygon style="fill:#319FD2;" points="125.461,90.667 121.246,84.637 121.712,81.376 125.25,77.849 133.104,88.308 
			130.364,90.652 124.646,82.247 124.606,82.322 124.383,83.889 127.92,88.949 		"/>
	</g>
</g>
<g>
	<g>
		<rect x="139.589" y="82.182" style="fill:#319FD2;" width="4.913" height="36.851"/>
		<path style="fill:#319FD2;" d="M146.002,120.532h-7.913v-39.85h7.913V120.532z M141.089,117.532h1.913v-33.85h-1.913V117.532z"/>
	</g>
	<g>
		<rect x="139.589" y="79.349" style="fill:#319FD2;" width="21.394" height="4.913"/>
		<path style="fill:#319FD2;" d="M162.482,85.763h-24.394v-7.914h24.394V85.763z M141.089,82.763h18.394v-1.914h-18.394V82.763z"/>
	</g>
	<g>
		<rect x="139.589" y="114.119" style="fill:#319FD2;" width="21.394" height="4.913"/>
		<path style="fill:#319FD2;" d="M162.482,120.532h-24.394v-7.913h24.394V120.532z M141.089,117.532h18.394v-1.913h-18.394V117.532z
			"/>
	</g>
	<g>
		<rect x="139.589" y="96.734" style="fill:#319FD2;" width="17.709" height="4.913"/>
		<path style="fill:#319FD2;" d="M158.797,103.147h-20.708v-7.914h20.708V103.147z M141.089,100.147h14.708v-1.914h-14.708V100.147z
			"/>
	</g>
</g>
<g>
	<path style="fill:#319FD2;" d="M23.773,99.455c0-6.584,0.856-12.964,2.429-19.057h-5.603H0v39.203h20.853h5.646
		C24.737,113.183,23.773,106.435,23.773,99.455z"/>
	<path style="fill:#319FD2;" d="M179.402,80.399h-5.603c1.572,6.093,2.429,12.473,2.429,19.057c0,6.979-0.964,13.727-2.727,20.146
		h5.646H200V80.399C200,80.399,179.402,80.399,179.402,80.399z"/>
</g>
<path style="fill:none;" d="M98.324,176.227c-6.584,0-12.964-0.856-19.057-2.429v5.603V200h39.203v-20.853v-5.646
	C112.051,175.263,105.303,176.227,98.324,176.227z"/>
<path style="fill:none;" d="M79.267,20.598v5.603c6.093-1.572,12.473-2.429,19.057-2.429c6.979,0,13.727,0.964,20.146,2.727v-5.645
	V0H79.267L79.267,20.598L79.267,20.598z"/>
<path style="fill:none;" d="M100,175c29.378,0,54.794-16.9,67.1-41.5H32.9C45.206,158.1,70.622,175,100,175z"/>
<path style="fill:#319FD2;" d="M100,25c32.09,0,59.459,20.16,70.168,48.5h13.242c-11.227-35.37-44.324-61-83.41-61
	s-72.183,25.63-83.41,61h13.242C40.541,45.16,67.91,25,100,25z"/>
<path style="fill:#319FD2;" d="M100,175c-29.378,0-54.794-16.9-67.1-41.5H19.148c13.15,31.701,44.395,54,80.852,54
	s67.702-22.299,80.852-54H167.1C154.794,158.1,129.378,175,100,175z"/>
</svg>
